<svg xmlns="http://www.w3.org/2000/svg" xmlns:xlink="http://www.w3.org/1999/xlink" width="99.756" height="77.884" viewBox="0 0 99.756 77.884">
  <defs>
    <clipPath id="clip-path">
      <rect width="99.756" height="77.884" fill="none"/>
    </clipPath>
    <linearGradient id="linear-gradient" x1="0.5" x2="0.5" y2="1" gradientUnits="objectBoundingBox">
      <stop offset="0" stop-color="#A90CAA"/>
      <stop offset="1" stop-color="#a90caa"/>
    </linearGradient>
  </defs>
  <g id="Repeat_Grid_3" data-name="Repeat Grid 3" transform="translate(0)" clip-path="url(#clip-path)">
    <g id="Group_70" data-name="Group 70" transform="translate(-130.476 -199.022)">
      <path id="Path_1" data-name="Path 1" d="M476.173,97.36l-9.609,31.4-.226,0L455.779,97.493c.652.4,1.121.645,1.534.959,2.248,1.71,4.479,3.442,6.724,5.156a13.571,13.571,0,0,0,1.665,1.139.953.953,0,0,0,.851-.033c1.509-1.166,2.976-2.387,4.466-3.577q2.046-1.634,4.118-3.234A7.715,7.715,0,0,1,476.173,97.36Z" transform="translate(-285.891 120.097)" fill="url(#linear-gradient)"/>
      <path id="Path_2" data-name="Path 2" d="M697.879-15.188c0,.74.026,1.48,0,2.219-.087,2.1-.2,4.206-.3,6.309-.211,4.343-.411,8.686-.637,13.028-.185,3.557-.419,7.112-.594,10.67-.066,1.347.017,2.7-.051,4.048-.186,3.745-.44,7.488-.618,11.233-.111,2.338-.106,4.681-.2,7.02-.118,2.831-.315,5.658-.43,8.489-.058,1.424-.01,2.851-.01,4.282-.927-.041-1.359-.547-1.369-1.516-.037-3.624-.06-7.248-.094-10.871-.041-4.462-.076-8.924-.137-13.385-.041-2.968-.145-5.936-.182-8.9q-.068-5.51-.07-11.02,0-8.589.058-17.178a1.824,1.824,0,0,1,.507-1.188c1.227-1.158,2.52-2.245,3.789-3.358Z" transform="translate(-484.766 214.485)" fill="url(#linear-gradient)"/>
      <path id="Path_3" data-name="Path 3" d="M316.36-8.8c1.4,1.168,2.82,2.322,4.2,3.521a1.243,1.243,0,0,1,.225.821q.225,9.2.425,18.4c.157,6.917.3,13.835.48,20.752.04,1.565.217,3.127.257,4.692q.128,5.017.173,10.037c.021,2.186-.06,4.373-.013,6.558a1.544,1.544,0,0,1-1.206,1.654c-.1-1.182-.2-2.294-.273-3.407-.236-3.524-.444-7.05-.693-10.573q-.938-13.289-1.9-26.576c-.52-7.111-1.07-14.219-1.6-21.329-.11-1.471-.2-2.944-.3-4.416Z" transform="translate(-168.897 209.032)" fill="url(#linear-gradient)"/>
      <path id="Path_4" data-name="Path 4" d="M766.086,72.373a3.275,3.275,0,0,1-.3-.9c-.037-1.433-.027-2.866-.031-4.3-.016-5.4-.04-10.8-.044-16.2,0-5.566.011-11.131.014-16.7,0-1.942-.016-3.883-.013-5.825q.018-11.19.043-22.379c0-1.09,0-2.18,0-3.527.88.467,1.528.807,2.172,1.155a12.141,12.141,0,0,0,1.561.841,1.028,1.028,0,0,1,.747,1.218c-.288,4.738-.553,9.478-.832,14.217q-.36,6.129-.731,12.259-.453,7.592-.9,15.184c-.042.728,0,1.461-.046,2.188-.18,3.041-.4,6.08-.56,9.122-.093,1.777-.066,3.56-.155,5.338-.086,1.722-.262,3.439-.38,5.159-.07,1.015-.106,2.031-.157,3.047Z" transform="translate(-545.525 199.529)" fill="url(#linear-gradient)"/>
      <path id="Path_5" data-name="Path 5" d="M616.859,233.747c-2.776,0-5.552.04-8.326-.028a5.856,5.856,0,0,1-2.083-.591c-1.434-.619-2.811-1.372-4.252-1.972a38.5,38.5,0,0,1-8.465-5.314,27.524,27.524,0,0,1-4.145-4.308,27,27,0,0,1-5.873-12.371,34.752,34.752,0,0,1,2.093-19.546.635.635,0,0,1,.334-.366c-.05.28-.095.561-.151.839a39.156,39.156,0,0,0-.493,11.293,29.375,29.375,0,0,0,1.521,7.6,33.525,33.525,0,0,0,4.129,7.93,38.112,38.112,0,0,0,8.471,8.632,45.33,45.33,0,0,0,4.307,2.726,47.5,47.5,0,0,0,12.709,5.081,1.119,1.119,0,0,1,.263.148Z" transform="translate(-392.572 43.118)" fill="url(#linear-gradient)"/>
      <path id="Path_6" data-name="Path 6" d="M259.153,234.206q1.006-.276,2.013-.553a42.282,42.282,0,0,0,14.682-7.293,39.751,39.751,0,0,0,5.619-5.235,32.417,32.417,0,0,0,6.9-12.573,34.3,34.3,0,0,0,.947-13.319c-.176-1.658-.527-3.3-.793-4.945a.521.521,0,0,1,.116-.415c.392.9.859,1.78,1.163,2.711a37.889,37.889,0,0,1,2.107,13.536,27.286,27.286,0,0,1-5.338,15.294,32.818,32.818,0,0,1-11.727,9.734c-2.01,1.031-4.088,1.936-6.166,2.826a5.06,5.06,0,0,1-1.885.315c-2.537.034-5.074.014-7.611.014Z" transform="translate(-121.174 42.596)" fill="url(#linear-gradient)"/>
      <path id="Path_7" data-name="Path 7" d="M251.644,68.517q.132,5.249.262,10.5a1.213,1.213,0,0,1-.025.479,2.343,2.343,0,0,1-.345.464c-.12-.149-.328-.289-.346-.45-.1-.859-.147-1.723-.211-2.585-.347-4.647-.674-9.3-1.044-13.941q-.646-8.109-1.354-16.213c-.438-5.1-.9-10.2-1.346-15.294-.434-5-.851-10-1.284-15-.062-.722-.221-1.439-.226-2.16a1.279,1.279,0,0,1,.428-.943c.977-.664,2.015-1.238,3.029-1.847.478-.287.765-.1.785.55.054,1.735.067,3.471.132,5.205.117,3.145.273,6.288.389,9.433.123,3.329.224,6.658.323,9.988q.261,8.731.506,17.462c.118,4.305.214,8.611.316,12.917.011.48,0,.961,0,1.441Z" transform="translate(-109.924 192.116)" fill="url(#linear-gradient)"/>
      <path id="Path_8" data-name="Path 8" d="M731.97,53.607c0-1.424.034-2.848-.007-4.271-.106-3.64-.254-7.279-.363-10.919-.023-.78.084-1.563.073-2.344q-.092-6.152-.22-12.3c-.061-2.819-.192-5.636-.234-8.455-.044-2.97-.01-5.941-.025-8.912q-.034-6.733-.091-13.465c-.023-2.733-.066-5.465-.1-8.2,0-.263,0-.526,0-.978.86.433,1.592.788,2.31,1.169a13.42,13.42,0,0,0,1.542.865c.655.241.783.612.745,1.273q-.489,8.334-.906,16.671c-.174,3.39-.3,6.783-.473,10.174-.109,2.149-.28,4.294-.387,6.443-.191,3.856-.339,7.715-.536,11.571-.189,3.721-.45,7.439-.618,11.16-.153,3.383-.222,6.769-.331,10.154a2.754,2.754,0,0,1-.064.38Z" transform="translate(-516.451 215.258)" fill="url(#linear-gradient)"/>
      <path id="Path_9" data-name="Path 9" d="M799.523,22.143a31.052,31.052,0,0,0,2.888,1.512c1.33.526,1.452,1.431,1.356,2.722-.506,6.781-.929,13.569-1.342,20.357-.363,5.953-.65,11.911-1.02,17.864-.249,4.011-.585,8.016-.878,12.024-.041.566-.058,1.133-.089,1.7q-.319,5.736-.643,11.472a4.492,4.492,0,0,1-.074.467l-.248.087a2.728,2.728,0,0,1-.267-.78c-.031-1.433-.026-2.867-.025-4.3,0-5.539-.014-11.077.009-16.616q.057-13.746.156-27.492c.038-5.264.119-10.527.177-15.791C799.532,24.38,799.523,23.39,799.523,22.143Z" transform="translate(-573.56 183.108)" fill="url(#linear-gradient)"/>
      <path id="Path_10" data-name="Path 10" d="M400.795,447.82H340.9l-.058-.223,2.323-1.123a15.3,15.3,0,0,0,2.014-1,4.929,4.929,0,0,1,3.008-.685q8.781.069,17.562.087,10.541.02,21.083,0c2.562,0,5.125-.018,7.687-.014a1.7,1.7,0,0,1,.7.161c1.729.817,3.452,1.65,5.174,2.482A3.61,3.61,0,0,1,400.795,447.82Z" transform="translate(-189.606 -170.952)" fill="url(#linear-gradient)"/>
      <path id="Path_11" data-name="Path 11" d="M283.506,58.183c-.166-2.363-.325-4.726-.5-7.087q-.514-6.9-1.047-13.791c-.277-3.544-.573-7.087-.867-10.63-.388-4.662-.788-9.322-1.171-13.985-.282-3.428-.542-6.858-.818-10.286-.218-2.708-.411-5.419-.688-8.121a1.386,1.386,0,0,1,.888-1.618c1.078-.547,2.073-1.256,3.1-1.9C283.1-8.071,284.17,54.564,283.506,58.183Z" transform="translate(-137.295 209.39)" fill="url(#linear-gradient)"/>
      <path id="Path_12" data-name="Path 12" d="M216.952,29.9c.921,22.534,1.756,44.868,2.2,67.214l-.36.049a4.118,4.118,0,0,1-.209-.75c-.268-3.1-.521-6.211-.782-9.316-.344-4.107-.683-8.214-1.04-12.32-.323-3.714-.667-7.427-1-11.14-.176-1.953-.327-3.909-.529-5.86-.223-2.153-.538-4.3-.727-6.454-.225-2.579-.329-5.168-.542-7.748-.2-2.364-.467-4.721-.705-7.082-.108-1.07-.21-2.141-.33-3.21a1.3,1.3,0,0,1,.851-1.459C214.79,31.313,215.725,30.653,216.952,29.9Z" transform="translate(-82.438 176.611)" fill="url(#linear-gradient)"/>
      <path id="Path_13" data-name="Path 13" d="M668.427,73.133a1.287,1.287,0,0,1-1.184-1.414q-.076-15.367-.189-30.734c-.046-7.724-.072-15.449-.12-23.173a1.744,1.744,0,0,1,1-1.767,7.825,7.825,0,0,0,1.352-1.143,3.019,3.019,0,0,1,.859-.569C669.823,33.926,668.924,53.47,668.427,73.133Z" transform="translate(-462.778 189.65)" fill="url(#linear-gradient)"/>
      <path id="Path_14" data-name="Path 14" d="M354.036,77.092c-.1-1.53-.2-3.06-.291-4.59-.188-3.337-.358-6.675-.551-10.012-.17-2.934-.368-5.867-.545-8.8q-.7-11.641-1.4-23.282-.326-5.419-.655-10.838c-.009-.155,0-.312,0-.585a2.66,2.66,0,0,1,.539.24c.719.572,1.408,1.183,2.143,1.732a1.593,1.593,0,0,1,.68,1.373c.095,4.35.223,8.7.328,13.05.119,4.944.2,9.889.342,14.832.169,5.969.407,11.935.56,17.9.066,2.586.032,5.178-.048,7.764-.014.462-.475.91-.729,1.364Z" transform="translate(-197.771 185.754)" fill="url(#linear-gradient)"/>
      <path id="Path_15" data-name="Path 15" d="M438.109,416.048H396.776a7.018,7.018,0,0,1,.607-.672c.754-.607,1.532-1.185,2.28-1.8a3.493,3.493,0,0,1,2.365-.815c8.505.028,17.01.016,25.516.012,1.972,0,3.945-.042,5.917,0a2.49,2.49,0,0,1,1.341.433c1,.727,1.935,1.544,2.89,2.333A4.453,4.453,0,0,1,438.109,416.048Z" transform="translate(-236.463 -144.115)" fill="url(#linear-gradient)"/>
      <path id="Path_16" data-name="Path 16" d="M380.449,90.5c-.035-.6-.06-1.042-.086-1.485-.187-3.2-.383-6.406-.56-9.61-.191-3.467-.356-6.935-.545-10.4-.2-3.743-.421-7.485-.632-11.228-.263-4.664-.54-9.328-.779-13.994-.064-1.251-.01-2.509-.01-3.983.992.852,1.929,1.632,2.827,2.456.141.13.137.455.143.691q.172,6.968.328,13.937.219,9.6.437,19.206.145,6.1.323,12.207A2.452,2.452,0,0,1,380.449,90.5Z" transform="translate(-220.58 168.322)" fill="url(#linear-gradient)"/>
      <path id="Path_17" data-name="Path 17" d="M643.746,87.847a3.847,3.847,0,0,1-1.329-2.477q-.085-5.069-.14-10.139c-.03-2.456-.061-4.913-.077-7.369q-.07-11.3-.131-22.605c-.011-1.756-.037-3.512-.1-5.267a1.851,1.851,0,0,1,.717-1.694c.751-.581,1.452-1.228,2.174-1.846l.227.15Z" transform="translate(-441.866 171.123)" fill="url(#linear-gradient)"/>
      <path id="Path_18" data-name="Path 18" d="M434.892,383.268c.772-.96,1.514-1.947,2.34-2.859.181-.2.657-.179,1-.18q9.2-.027,18.4-.034c1.214,0,2.429-.011,3.643-.047a1.447,1.447,0,0,1,1.317.611c.661.868,1.379,1.691,2.219,2.709H435.036Z" transform="translate(-268.393 -116.8)" fill="url(#linear-gradient)"/>
      <path id="Path_19" data-name="Path 19" d="M458.289,350.8c.564-1.092,1.071-2.111,1.627-3.1.066-.118.395-.123.6-.123,5.43-.012,10.86-.012,16.29-.033a1.076,1.076,0,0,1,1.141.673c.383.829.833,1.627,1.332,2.586Z" transform="translate(-287.993 -89.481)" fill="url(#linear-gradient)"/>
      <path id="Path_20" data-name="Path 20" d="M481.745,317.6q-3.483,0-6.967,0c-.954,0-1.032-.118-.759-1.051.046-.155.092-.311.134-.467.518-1.891.518-1.894,2.523-1.907,3.726-.025,7.452-.03,11.178-.084.758-.011,1.156.214,1.26.994a9.242,9.242,0,0,0,.4,1.4c.292.972.257,1.034-.72,1.036-2.35.006-4.7,0-7.049,0Z" transform="translate(-301.056 -61.465)" fill="url(#linear-gradient)"/>
      <path id="Path_21" data-name="Path 21" d="M497.664,85.026a3.7,3.7,0,0,1-3.737-3.825,3.792,3.792,0,0,1,3.907-3.766,3.8,3.8,0,0,1-.17,7.591Z" transform="translate(-317.846 136.798)" fill="url(#linear-gradient)"/>
      <path id="Path_22" data-name="Path 22" d="M483.8,57.18c-.732-1.034-.759-2.726-2.666-2.567l.089-.248c1.257-.476,2.523-.93,3.768-1.435a3.425,3.425,0,0,1,2.352-.1c1.383.4,2.786.734,4.411,1.154a5.441,5.441,0,0,1-.908.665,1.29,1.29,0,0,0-.941,1.344c.045.708-.311.648-.742.42a4.31,4.31,0,0,0-4.309.071C484.533,56.661,484.236,56.893,483.8,57.18Z" transform="translate(-307.135 157.535)" fill="url(#linear-gradient)"/>
      <path id="Path_23" data-name="Path 23" d="M536.231,284.257c-.592,0-1.185-.012-1.777,0-.483.013-.645-.21-.512-.651.248-.822.49-1.649.79-2.453a.743.743,0,0,1,.568-.314,19.582,19.582,0,0,1,2.5-.009.922.922,0,0,1,.645.579c.14.681.136,1.39.217,2.084.061.516-.12.758-.655.743-.592-.017-1.184,0-1.777,0Z" transform="translate(-351.332 -33.572)" fill="url(#linear-gradient)"/>
      <path id="Path_24" data-name="Path 24" d="M485.953,284.32c-1.663,0-3.086.017-4.507-.025-.144,0-.394-.36-.395-.553a14.773,14.773,0,0,1,.155-2.335.885.885,0,0,1,.66-.5,19.336,19.336,0,0,1,2.346-.022c.218.008.563.115.623.266C485.223,282.141,485.549,283.151,485.953,284.32Z" transform="translate(-307.061 -33.628)" fill="url(#linear-gradient)"/>
      <path id="Path_25" data-name="Path 25" d="M548.613,62.967c-.574.682-.79.67-1.042-.057-.3-.854-.562-1.719-.892-2.733a2.573,2.573,0,0,1,.552.2C547.125,61.525,548.081,62.1,548.613,62.967Z" transform="translate(-362.039 151.246)" fill="url(#linear-gradient)"/>
    </g>
  </g>
</svg>
