<svg xmlns="http://www.w3.org/2000/svg" width="32.138" height="42.713" viewBox="0 0 32.138 42.713">
  <g id="iconfinder_file-pdf_383140" transform="translate(0 0.117)">
    <path id="Path_254" data-name="Path 254" d="M60.2,121H59v5.524h1.361a3.027,3.027,0,0,0,2.148-.727,2.7,2.7,0,0,0,.751-2.061,2.676,2.676,0,0,0-.751-2.041A3.207,3.207,0,0,0,60.2,121Z" transform="translate(-44.186 -90.707)" fill="#f35c5c"/>
    <path id="Path_255" data-name="Path 255" d="M29.692,121.285A2.663,2.663,0,0,0,28.21,121H27v3.013h1.419a1.815,1.815,0,0,0,1.384-.431,1.716,1.716,0,0,0,.366-1.187A1.247,1.247,0,0,0,29.692,121.285Z" transform="translate(-20.221 -90.707)" fill="#f35c5c"/>
    <path id="Path_256" data-name="Path 256" d="M32.041,7.194h0L24.857.008v-.1h-.1l-.029-.029L24.7-.088H2.511A2.511,2.511,0,0,0,0,2.423V40.085A2.511,2.511,0,0,0,2.511,42.6H29.628a2.511,2.511,0,0,0,2.511-2.511V7.194ZM11.051,34.263a4.792,4.792,0,0,1-3.01.8H6.779v2.511H4.771V28.536H8.015a4.7,4.7,0,0,1,3.061.772,3.082,3.082,0,0,1,.96,2.494A2.943,2.943,0,0,1,11.051,34.263Zm8.8,2.071a5.373,5.373,0,0,1-3.884,1.24H12.805V28.536h3.266a5.35,5.35,0,0,1,3.747,1.151,4.229,4.229,0,0,1,1.306,3.3A4.437,4.437,0,0,1,19.85,36.334Zm8.522-6.041H24.1V32.3h4.017v1.758H24.1v3.515H22.1V28.536h6.277Zm-1-23.1a2.511,2.511,0,0,1-2.511-2.511V1.073l6.121,6.121Z" fill="#f35c5c"/>
  </g>
</svg>
