<svg xmlns="http://www.w3.org/2000/svg" width="55.758" height="68.625" viewBox="0 0 55.758 68.625">
  <g id="iconfinder_88_111104_1_" data-name="iconfinder_88_111104 (1)" transform="translate(-73.332 -31.949)" fill="none" fill-rule="evenodd">
    <path d="M127.217,81.4A21.194,21.194,0,0,0,115.38,73.5L110.5,90.566a2.859,2.859,0,1,1-5.719,0V76.984a3.574,3.574,0,1,0-7.149,0V90.566a2.859,2.859,0,1,1-5.719,0L87.043,73.5A21.262,21.262,0,0,0,75.206,81.4a12.969,12.969,0,0,0-1.874,6.305c.014.429,0,.929,0,1.429v5.719a5.717,5.717,0,0,0,5.719,5.718h44.32a5.718,5.718,0,0,0,5.719-5.718V89.136c0-.5-.014-1,0-1.429A12.986,12.986,0,0,0,127.217,81.4ZM86.2,47.075c0,8.349,5.205,20.616,15.012,20.616,9.636,0,15.012-12.267,15.012-20.616a15.012,15.012,0,1,0-30.023,0Z" stroke="none"/>
    <path d="M 123.3711166381836 95.57405090332031 C 123.7677154541016 95.57405090332031 124.0903701782227 95.25175476074219 124.0903701782227 94.85559844970703 L 124.0903701782227 91.99588775634766 L 124.0903701782227 89.13634490966797 C 124.0903701782227 88.98297119140625 124.0888366699219 88.82951354980469 124.0874099731445 88.67852783203125 C 124.0844955444336 88.37150573730469 124.0814971923828 88.05574798583984 124.0880584716797 87.73276519775391 C 124.0330200195313 86.62930297851563 123.5634613037109 84.92459869384766 123.2396621704102 84.43202972412109 C 121.8674087524414 82.64360046386719 120.3954010009766 81.28200531005859 118.6550369262695 80.23506927490234 L 115.4568634033203 91.43222808837891 C 115.2847595214844 92.99589538574219 114.6521911621094 94.42265319824219 113.6979598999023 95.57405090332031 L 123.3711166381836 95.57405090332031 M 101.5918045043945 95.57405090332031 C 101.458610534668 95.41332244873047 101.3316116333008 95.24711608886719 101.2113265991211 95.07601928710938 C 101.0910415649414 95.24711608886719 100.9640426635742 95.41332244873047 100.8308486938477 95.57405090332031 L 101.5918045043945 95.57405090332031 M 88.72445678710938 95.57405090332031 C 87.77020263671875 94.42265319824219 87.13762664794922 92.99590301513672 86.96551513671875 91.43223571777344 L 83.76895904541016 80.24073028564453 C 82.02254486083984 81.29000091552734 80.55027770996094 82.649658203125 79.18241119384766 84.43280029296875 C 78.85810089111328 84.92560577392578 78.38845062255859 86.62922668457031 78.33428955078125 87.73040771484375 C 78.34098052978516 88.05458831787109 78.33794403076172 88.37123107910156 78.33499145507813 88.67906188964844 C 78.33354187011719 88.82987213134766 78.33199310302734 88.98313903808594 78.33199310302734 89.13634490966797 L 78.33199310302734 91.99588775634766 L 78.33199310302734 94.85559844970703 C 78.33199310302734 95.25175476074219 78.65451812744141 95.57405090332031 79.05094146728516 95.57405090332031 L 88.72445678710938 95.57405090332031 M 101.2111968994141 62.69130325317383 C 102.478515625 62.69130325317383 103.6477813720703 62.31026077270508 104.7857971191406 61.52640914916992 C 105.9666748046875 60.71303558349609 107.1061401367188 59.45198059082031 108.0809936523438 57.87956619262695 C 109.9895172119141 54.80120849609375 111.2227172851563 50.56019592285156 111.2227172851563 47.07508850097656 C 111.2227172851563 41.49154281616211 106.7315673828125 36.94899368286133 101.2111968994141 36.94899368286133 C 95.69063568115234 36.94899368286133 91.19932556152344 41.49154281616211 91.19932556152344 47.07508850097656 C 91.19932556152344 48.75199508666992 91.47129058837891 50.62408828735352 91.98579406738281 52.48898315429688 C 92.53041076660156 54.46298217773438 93.32619476318359 56.33251571655273 94.28712463378906 57.89547348022461 C 95.26277160644531 59.48236846923828 96.36270141601563 60.70208740234375 97.55635833740234 61.52072906494141 C 98.70486450195313 62.30840682983398 99.90036773681641 62.69130325317383 101.2111968994141 62.69130325317383 M 123.3711166381836 100.5740509033203 L 79.05094146728516 100.5740509033203 C 75.89131164550781 100.5740509033203 73.33199310302734 98.01507568359375 73.33199310302734 94.85559844970703 L 73.33199310302734 91.99588775634766 L 73.33199310302734 89.13634490966797 C 73.33199310302734 88.63656616210938 73.34616851806641 88.13600921630859 73.33199310302734 87.70719146728516 C 73.37418365478516 86.04814147949219 74.01903533935547 82.94579315185547 75.20584869384766 81.40177154541016 C 78.20764923095703 77.48413848876953 81.83905029296875 74.95408630371094 87.04263305664063 73.49663543701172 L 91.91812896728516 90.56627655029297 C 91.91812896728516 92.13861083984375 93.20549011230469 93.42581939697266 94.77783203125 93.42581939697266 C 96.34970092773438 93.42581939697266 97.63706207275391 92.13861083984375 97.63706207275391 90.56627655029297 L 97.63706207275391 76.98435211181641 C 97.63706207275391 75.01168823242188 99.23851776123047 73.40992736816406 101.2111968994141 73.40992736816406 C 103.1839981079102 73.40992736816406 104.7856216430664 75.01168823242188 104.7856216430664 76.98435211181641 L 104.7856216430664 90.56627655029297 C 104.7856216430664 92.13861083984375 106.0729827880859 93.42581939697266 107.6446990966797 93.42581939697266 C 109.2168731689453 93.42581939697266 110.5042495727539 92.13861083984375 110.5042495727539 90.56627655029297 L 115.3797378540039 73.49663543701172 C 120.5831527709961 74.94008636474609 124.2146987915039 77.48413848876953 127.2168197631836 81.40177154541016 C 128.4030151367188 82.94561767578125 129.0470886230469 86.04814147949219 129.0903625488281 87.70719146728516 C 129.0763549804688 88.13600921630859 129.0903625488281 88.63656616210938 129.0903625488281 89.13634490966797 L 129.0903625488281 91.99588775634766 L 129.0903625488281 94.85559844970703 C 129.0903625488281 98.01507568359375 126.5305786132813 100.5740509033203 123.3711166381836 100.5740509033203 Z M 101.2111968994141 67.69129943847656 C 91.40450286865234 67.69129943847656 86.19932556152344 55.4244499206543 86.19932556152344 47.07508850097656 C 86.19932556152344 38.72603607177734 92.91925048828125 31.94899559020996 101.2111968994141 31.94899559020996 C 109.5031127929688 31.94899559020996 116.2227172851563 38.72603607177734 116.2227172851563 47.07508850097656 C 116.2227172851563 55.4244499206543 110.8474502563477 67.69129943847656 101.2111968994141 67.69129943847656 Z" stroke="none" fill="#A90CAA"/>
  </g>
</svg>
