<svg xmlns="http://www.w3.org/2000/svg" width="75.103" height="66.995" viewBox="0 0 75.103 66.995">
  <g id="iconfinder_18_google_translate_text_language_translation_2109163" transform="translate(2.5 2.5)">
    <path id="path4307" d="M17.4,1028.86H46.85a4.562,4.562,0,0,1,4.572,4.572V1076.1a4.562,4.562,0,0,1-4.572,4.572H17.894l-2.075-8.818" transform="translate(18.681 -1019.716)" fill="none" stroke="#ffd242" stroke-linecap="round" stroke-linejoin="round" stroke-miterlimit="4.1" stroke-width="5"/>
    <path id="rect4302" d="M50.219,1077.675H9.072A4.562,4.562,0,0,1,4.5,1073.1v-42.672a4.562,4.562,0,0,1,4.572-4.572H38.028Z" transform="translate(-4.5 -1025.86)" fill="none" stroke="#ffd242" stroke-linecap="round" stroke-linejoin="round" stroke-miterlimit="4.1" stroke-width="5"/>
    <path id="path4309" d="M16.505,1051.983l9.113-9.113" transform="translate(20.086 -991.024)" fill="none" stroke="#ffd242" stroke-linecap="round" stroke-linejoin="round" stroke-width="5" fill-rule="evenodd"/>
    <path id="path4331" d="M15.121,1036.481h7.621a7.621,7.621,0,1,1-3.811-6.6" transform="translate(1.642 -1019.717)" fill="none" stroke="#ffd242" stroke-linecap="round" stroke-linejoin="round" stroke-miterlimit="4.1" stroke-width="5"/>
    <path id="path4333" d="M17.493,1032.86H38.829" transform="translate(22.109 -1011.524)" fill="none" stroke="#ffd242" stroke-linecap="round" stroke-linejoin="round" stroke-width="5" fill-rule="evenodd"/>
    <path id="path4335" d="M33.143,1054.1a25.906,25.906,0,0,1-13.626-21.2" transform="translate(26.254 -1011.433)" fill="none" stroke="#ffd242" stroke-linecap="round" stroke-linejoin="round" stroke-width="5"/>
    <path id="circle4337" d="M30.142,1032.9a25.908,25.908,0,0,1-11.4,19.873" transform="translate(24.67 -1011.442)" fill="none" stroke="#ffd242" stroke-linecap="round" stroke-linejoin="round" stroke-width="5"/>
    <path id="path4339" d="M21,1030.87v6.1" transform="translate(29.291 -1015.6)" fill="none" stroke="#ffd242" stroke-linecap="round" stroke-linejoin="round" stroke-width="5" fill-rule="evenodd"/>
  </g>
</svg>
